<?xml version="1.0" encoding="UTF-8" standalone="no"?>
<svg
   xmlns:dc="http://purl.org/dc/elements/1.1/"
   xmlns:cc="http://creativecommons.org/ns#"
   xmlns:rdf="http://www.w3.org/1999/02/22-rdf-syntax-ns#"
   xmlns:svg="http://www.w3.org/2000/svg"
   xmlns="http://www.w3.org/2000/svg"
   width="14.46"
   height="55.14"
   viewBox="0 0 51.24 195.38"
   id="svg2"
   version="1.1">
  <defs
     id="defs4">
    <marker
       overflow="visible"
       orient="auto"
       refY="0"
       refX="0"
       id="Arrow2Mend">
      <path
         style="fill:#008000;stroke-linejoin:round;stroke-width:0.63;stroke:#008000"
         id="path4173"
         d="M8.72 4.03-2.21 0.02 8.72-4c-1.75 2.37-1.74 5.62 0 8.04z"
         transform="scale(-0.6,-0.6)" />
    </marker>
    <marker
       overflow="visible"
       orient="auto"
       refY="0"
       refX="0"
       id="Arrow1Mend">
      <path
         style="fill:#000;stroke-width:1;stroke:#000"
         id="path4155"
         d="M0 0 5-5-12.5 0 5 5 0 0Z"
         transform="matrix(-0.4,0,0,-0.4,-4,0)" />
    </marker>
    <marker
       overflow="visible"
       orient="auto"
       refY="0"
       refX="0"
       id="Arrow1Lend">
      <path
         style="fill:#000;stroke-width:1;stroke:#000"
         id="path4149"
         d="M0 0 5-5-12.5 0 5 5 0 0Z"
         transform="matrix(-0.8,0,0,-0.8,-10,0)" />
    </marker>
  </defs>
  <metadata
     id="metadata7">
    <rdf:RDF>
      <cc:Work
         rdf:about="">
        <dc:format>image/svg+xml</dc:format>
        <dc:type
           rdf:resource="http://purl.org/dc/dcmitype/StillImage" />
        <dc:title></dc:title>
      </cc:Work>
    </rdf:RDF>
  </metadata>
  <g
     id="layer1"
     transform="translate(-327.85714,-363.90317)">
    <path
       style="fill:none;marker-end:url(#Arrow2Mend);stroke-width:6.7;stroke:#008000"
       d="m327.86 555.93c0 0 67.86 0 35-145l-8.57-37.14"
       id="path4140" />
  </g>
</svg>
