<svg xmlns:svg="http://www.w3.org/2000/svg" xmlns="http://www.w3.org/2000/svg" version="1.1" id="svg2" viewBox="0 0 51.24 195.38" height="55.14" width="14.46"><defs id="defs4"><marker id="Arrow2Mend" refX="0" refY="0" orient="auto" overflow="visible"><path transform="scale(-0.6,-0.6)" d="M8.72 4.03-2.21 0.02 8.72-4c-1.75 2.37-1.74 5.62 0 8.04z" id="path4173" style="fill:#008000;stroke-linejoin:round;stroke-width:0.63;stroke:#008000"/></marker><marker id="Arrow1Mend" refX="0" refY="0" orient="auto" overflow="visible"><path transform="matrix(-0.4,0,0,-0.4,-4,0)" d="M0 0 5-5-12.5 0 5 5 0 0Z" id="path4155" style="fill:#000;stroke-width:1;stroke:#000"/></marker><marker id="Arrow1Lend" refX="0" refY="0" orient="auto" overflow="visible"><path transform="matrix(-0.8,0,0,-0.8,-10,0)" d="M0 0 5-5-12.5 0 5 5 0 0Z" id="path4149" style="fill:#000;stroke-width:1;stroke:#000"/></marker></defs><metadata id="metadata7"/><g transform="translate(-327.85714,-363.90317)" id="layer1"><path id="path4140" d="m327.86 555.93c0 0 67.86 0 35-145l-8.57-37.14" style="fill:none;marker-end:url(#Arrow2Mend);stroke-width:6.7;stroke:#008000"/></g></svg>
